<mxfile host="app.diagrams.net" modified="2024-02-04T13:23:55.411Z" agent="Mozilla/5.0 (Windows NT 10.0; Win64; x64) AppleWebKit/537.36 (KHTML, like Gecko) Chrome/121.0.0.0 Safari/537.36" etag="uZ7fZRABIg-kd7yOt8nO" version="23.1.1" type="device">
  <diagram name="Page-1" id="13e1069c-82ec-6db2-03f1-153e76fe0fe0">
    <mxGraphModel dx="1562" dy="829" grid="1" gridSize="10" guides="1" tooltips="1" connect="1" arrows="1" fold="1" page="1" pageScale="1" pageWidth="1100" pageHeight="850" background="none" math="0" shadow="0">
      <root>
        <mxCell id="0" />
        <mxCell id="1" parent="0" />
        <mxCell id="p9_LnAo97dzvv3HN0wDx-10" value="" style="rounded=0;whiteSpace=wrap;html=1;fillColor=none;" vertex="1" parent="1">
          <mxGeometry x="180" y="60" width="550" height="330" as="geometry" />
        </mxCell>
        <mxCell id="p9_LnAo97dzvv3HN0wDx-15" value="" style="rounded=0;whiteSpace=wrap;html=1;fillColor=none;" vertex="1" parent="1">
          <mxGeometry x="180" y="480" width="550" height="330" as="geometry" />
        </mxCell>
        <mxCell id="p9_LnAo97dzvv3HN0wDx-1" value=":HostNetworkRPC" style="shape=umlLifeline;perimeter=lifelinePerimeter;whiteSpace=wrap;html=1;container=1;dropTarget=0;collapsible=0;recursiveResize=0;outlineConnect=0;portConstraint=eastwest;newEdgeStyle={&quot;curved&quot;:0,&quot;rounded&quot;:0};" vertex="1" parent="1">
          <mxGeometry x="560" y="80" width="130" height="300" as="geometry" />
        </mxCell>
        <mxCell id="p9_LnAo97dzvv3HN0wDx-2" value=":HostNetworkManager" style="shape=umlLifeline;perimeter=lifelinePerimeter;whiteSpace=wrap;html=1;container=1;dropTarget=0;collapsible=0;recursiveResize=0;outlineConnect=0;portConstraint=eastwest;newEdgeStyle={&quot;curved&quot;:0,&quot;rounded&quot;:0};" vertex="1" parent="1">
          <mxGeometry x="300" y="80" width="130" height="300" as="geometry" />
        </mxCell>
        <mxCell id="p9_LnAo97dzvv3HN0wDx-12" value=":HostNetworkRPC" style="shape=umlLifeline;perimeter=lifelinePerimeter;whiteSpace=wrap;html=1;container=1;dropTarget=0;collapsible=0;recursiveResize=0;outlineConnect=0;portConstraint=eastwest;newEdgeStyle={&quot;curved&quot;:0,&quot;rounded&quot;:0};" vertex="1" parent="1">
          <mxGeometry x="560" y="500" width="130" height="300" as="geometry" />
        </mxCell>
        <mxCell id="p9_LnAo97dzvv3HN0wDx-25" value="" style="html=1;points=[[0,0,0,0,5],[0,1,0,0,-5],[1,0,0,0,5],[1,1,0,0,-5]];perimeter=orthogonalPerimeter;outlineConnect=0;targetShapes=umlLifeline;portConstraint=eastwest;newEdgeStyle={&quot;curved&quot;:0,&quot;rounded&quot;:0};" vertex="1" parent="p9_LnAo97dzvv3HN0wDx-12">
          <mxGeometry x="60" y="140" width="10" height="40" as="geometry" />
        </mxCell>
        <mxCell id="p9_LnAo97dzvv3HN0wDx-27" value="" style="html=1;points=[[0,0,0,0,5],[0,1,0,0,-5],[1,0,0,0,5],[1,1,0,0,-5]];perimeter=orthogonalPerimeter;outlineConnect=0;targetShapes=umlLifeline;portConstraint=eastwest;newEdgeStyle={&quot;curved&quot;:0,&quot;rounded&quot;:0};" vertex="1" parent="p9_LnAo97dzvv3HN0wDx-12">
          <mxGeometry x="60" y="190" width="10" height="40" as="geometry" />
        </mxCell>
        <mxCell id="p9_LnAo97dzvv3HN0wDx-28" value="invoke(data)" style="html=1;align=left;spacingLeft=2;endArrow=block;rounded=0;edgeStyle=orthogonalEdgeStyle;curved=0;rounded=0;" edge="1" target="p9_LnAo97dzvv3HN0wDx-27" parent="p9_LnAo97dzvv3HN0wDx-12">
          <mxGeometry relative="1" as="geometry">
            <mxPoint x="65" y="170" as="sourcePoint" />
            <Array as="points">
              <mxPoint x="95" y="200" />
            </Array>
          </mxGeometry>
        </mxCell>
        <mxCell id="p9_LnAo97dzvv3HN0wDx-13" value=":HostNetworkManager" style="shape=umlLifeline;perimeter=lifelinePerimeter;whiteSpace=wrap;html=1;container=1;dropTarget=0;collapsible=0;recursiveResize=0;outlineConnect=0;portConstraint=eastwest;newEdgeStyle={&quot;curved&quot;:0,&quot;rounded&quot;:0};" vertex="1" parent="1">
          <mxGeometry x="305" y="500" width="130" height="300" as="geometry" />
        </mxCell>
        <mxCell id="p9_LnAo97dzvv3HN0wDx-16" value="Client" style="text;html=1;align=center;verticalAlign=middle;resizable=0;points=[];autosize=1;strokeColor=none;fillColor=none;fontSize=16;fontStyle=1" vertex="1" parent="1">
          <mxGeometry x="175" y="450" width="70" height="30" as="geometry" />
        </mxCell>
        <mxCell id="p9_LnAo97dzvv3HN0wDx-17" value="Serveur" style="text;html=1;align=center;verticalAlign=middle;resizable=0;points=[];autosize=1;strokeColor=none;fillColor=none;fontSize=16;fontStyle=1" vertex="1" parent="1">
          <mxGeometry x="180" y="30" width="80" height="30" as="geometry" />
        </mxCell>
        <mxCell id="p9_LnAo97dzvv3HN0wDx-18" value="sendRPC(data)" style="html=1;verticalAlign=bottom;startArrow=circle;startFill=1;endArrow=open;startSize=6;endSize=8;curved=0;rounded=0;" edge="1" parent="1" target="p9_LnAo97dzvv3HN0wDx-19">
          <mxGeometry width="80" relative="1" as="geometry">
            <mxPoint x="200" y="170" as="sourcePoint" />
            <mxPoint x="290" y="170" as="targetPoint" />
          </mxGeometry>
        </mxCell>
        <mxCell id="p9_LnAo97dzvv3HN0wDx-19" value="" style="html=1;points=[[0,0,0,0,5],[0,1,0,0,-5],[1,0,0,0,5],[1,1,0,0,-5]];perimeter=orthogonalPerimeter;outlineConnect=0;targetShapes=umlLifeline;portConstraint=eastwest;newEdgeStyle={&quot;curved&quot;:0,&quot;rounded&quot;:0};" vertex="1" parent="1">
          <mxGeometry x="360" y="170" width="10" height="50" as="geometry" />
        </mxCell>
        <mxCell id="p9_LnAo97dzvv3HN0wDx-20" value="" style="html=1;points=[[0,0,0,0,5],[0,1,0,0,-5],[1,0,0,0,5],[1,1,0,0,-5]];perimeter=orthogonalPerimeter;outlineConnect=0;targetShapes=umlLifeline;portConstraint=eastwest;newEdgeStyle={&quot;curved&quot;:0,&quot;rounded&quot;:0};" vertex="1" parent="1">
          <mxGeometry x="365" y="570" width="10" height="80" as="geometry" />
        </mxCell>
        <mxCell id="p9_LnAo97dzvv3HN0wDx-21" value="JSON" style="html=1;verticalAlign=bottom;endArrow=block;curved=0;rounded=0;entryX=0;entryY=0;entryDx=0;entryDy=5;entryPerimeter=0;exitX=0;exitY=1;exitDx=0;exitDy=-5;exitPerimeter=0;" edge="1" parent="1" source="p9_LnAo97dzvv3HN0wDx-19" target="p9_LnAo97dzvv3HN0wDx-20">
          <mxGeometry x="-0.1966" width="80" relative="1" as="geometry">
            <mxPoint x="370" y="195" as="sourcePoint" />
            <mxPoint x="590" y="380" as="targetPoint" />
            <Array as="points">
              <mxPoint x="260" y="215" />
              <mxPoint x="260" y="575" />
            </Array>
            <mxPoint as="offset" />
          </mxGeometry>
        </mxCell>
        <mxCell id="p9_LnAo97dzvv3HN0wDx-23" value="JSON = encode(data)" style="html=1;align=left;spacingLeft=2;endArrow=block;rounded=0;edgeStyle=orthogonalEdgeStyle;curved=0;rounded=0;" edge="1" target="p9_LnAo97dzvv3HN0wDx-19" parent="1">
          <mxGeometry relative="1" as="geometry">
            <mxPoint x="370" y="180" as="sourcePoint" />
            <Array as="points">
              <mxPoint x="400" y="180" />
              <mxPoint x="400" y="210" />
            </Array>
            <mxPoint x="375" y="210" as="targetPoint" />
          </mxGeometry>
        </mxCell>
        <mxCell id="p9_LnAo97dzvv3HN0wDx-24" value="data = decode(JSON)" style="html=1;align=left;spacingLeft=2;endArrow=block;rounded=0;edgeStyle=orthogonalEdgeStyle;curved=0;rounded=0;" edge="1" parent="1">
          <mxGeometry relative="1" as="geometry">
            <mxPoint x="375" y="580" as="sourcePoint" />
            <Array as="points">
              <mxPoint x="405" y="580" />
              <mxPoint x="405" y="610" />
            </Array>
            <mxPoint x="375" y="610" as="targetPoint" />
          </mxGeometry>
        </mxCell>
        <mxCell id="p9_LnAo97dzvv3HN0wDx-26" value="executeRPC(data)" style="html=1;verticalAlign=bottom;endArrow=block;curved=0;rounded=0;" edge="1" parent="1" target="p9_LnAo97dzvv3HN0wDx-25">
          <mxGeometry x="0.0041" width="80" relative="1" as="geometry">
            <mxPoint x="375" y="650" as="sourcePoint" />
            <mxPoint x="455" y="650" as="targetPoint" />
            <mxPoint as="offset" />
          </mxGeometry>
        </mxCell>
      </root>
    </mxGraphModel>
  </diagram>
</mxfile>
